<mxfile host="app.diagrams.net" agent="Mozilla/5.0 (Windows NT 10.0; Win64; x64) AppleWebKit/537.36 (KHTML, like Gecko) Chrome/133.0.0.0 Safari/537.36 Edg/133.0.0.0" version="26.1.0">
  <diagram name="Page-1" id="KJdFW8ahDQsgD91VlEtE">
    <mxGraphModel dx="2005" dy="1983" grid="1" gridSize="10" guides="1" tooltips="1" connect="1" arrows="1" fold="1" page="1" pageScale="1" pageWidth="850" pageHeight="1100" math="0" shadow="0">
      <root>
        <mxCell id="0" />
        <mxCell id="1" parent="0" />
        <mxCell id="U1jcqS2KWoJxYVEzJyyE-1" value="" style="rounded=0;whiteSpace=wrap;html=1;movable=0;resizable=0;rotatable=0;deletable=0;editable=0;locked=1;connectable=0;" vertex="1" parent="1">
          <mxGeometry x="140" y="-30" width="920" height="2040" as="geometry" />
        </mxCell>
        <mxCell id="U1jcqS2KWoJxYVEzJyyE-2" value="Peerless Wholesale Group" style="text;html=1;whiteSpace=wrap;overflow=hidden;rounded=0;" vertex="1" parent="1">
          <mxGeometry x="530.5" y="-20" width="180" height="120" as="geometry" />
        </mxCell>
        <mxCell id="U1jcqS2KWoJxYVEzJyyE-37" style="rounded=0;orthogonalLoop=1;jettySize=auto;html=1;exitX=0.5;exitY=0.5;exitDx=0;exitDy=0;exitPerimeter=0;entryX=0;entryY=0.5;entryDx=0;entryDy=0;fontFamily=Helvetica;endArrow=none;startFill=0;" edge="1" parent="1" target="U1jcqS2KWoJxYVEzJyyE-38">
          <mxGeometry relative="1" as="geometry">
            <mxPoint x="220" y="160.3529411764706" as="targetPoint" />
            <mxPoint x="75.00000000000011" y="170" as="sourcePoint" />
          </mxGeometry>
        </mxCell>
        <mxCell id="U1jcqS2KWoJxYVEzJyyE-38" value="&lt;p class=&quot;p1&quot; style=&quot;margin: 0px; font-variant-numeric: normal; font-variant-east-asian: normal; font-variant-alternates: normal; font-size-adjust: none; font-kerning: auto; font-optical-sizing: auto; font-feature-settings: normal; font-variation-settings: normal; font-variant-position: normal; font-variant-emoji: normal; font-stretch: normal; line-height: normal;&quot;&gt;Make Sales Calls&lt;/p&gt;" style="ellipse;whiteSpace=wrap;html=1;align=center;fillColor=light-dark(#ea6b66, #1f2f1e);strokeColor=light-dark(#874a4a, #ff8888);fontFamily=Helvetica;" vertex="1" parent="1">
          <mxGeometry x="339.5" y="100" width="170" height="80" as="geometry" />
        </mxCell>
        <mxCell id="U1jcqS2KWoJxYVEzJyyE-39" value="&lt;span id=&quot;docs-internal-guid-a58ee1ed-7fff-1f47-399d-0a0d233d31ba&quot;&gt;&lt;span style=&quot;font-size: 9pt; background-color: transparent; font-variant-numeric: normal; font-variant-east-asian: normal; font-variant-alternates: normal; font-variant-position: normal; font-variant-emoji: normal; vertical-align: baseline; white-space: pre-wrap;&quot;&gt;Buyer&lt;/span&gt;&lt;/span&gt;" style="shape=umlActor;verticalLabelPosition=bottom;verticalAlign=top;html=1;outlineConnect=0;fontFamily=Helvetica;" vertex="1" parent="1">
          <mxGeometry x="60" y="397" width="30" height="60" as="geometry" />
        </mxCell>
        <mxCell id="U1jcqS2KWoJxYVEzJyyE-40" value="&lt;span id=&quot;docs-internal-guid-16d97441-7fff-4b6b-f18f-fee4b0ce08a8&quot;&gt;&lt;span style=&quot;font-size: 9pt; background-color: transparent; font-variant-numeric: normal; font-variant-east-asian: normal; font-variant-alternates: normal; font-variant-position: normal; font-variant-emoji: normal; vertical-align: baseline; white-space: pre-wrap;&quot;&gt;Salesman&lt;/span&gt;&lt;/span&gt;" style="shape=umlActor;verticalLabelPosition=bottom;verticalAlign=top;html=1;outlineConnect=0;fontFamily=Helvetica;" vertex="1" parent="1">
          <mxGeometry x="60" y="150" width="30" height="60" as="geometry" />
        </mxCell>
        <mxCell id="U1jcqS2KWoJxYVEzJyyE-41" value="&lt;font&gt;Record sale order&lt;/font&gt;" style="ellipse;whiteSpace=wrap;html=1;fillColor=light-dark(#ea6b66, #1f2f1e);strokeColor=light-dark(#874a4a, #ff8888);fontFamily=Helvetica;" vertex="1" parent="1">
          <mxGeometry x="690.5" y="90" width="140" height="80" as="geometry" />
        </mxCell>
        <mxCell id="U1jcqS2KWoJxYVEzJyyE-42" value="&amp;lt;&amp;lt;include&amp;gt;&amp;gt;" style="edgeStyle=none;html=1;endArrow=open;verticalAlign=bottom;dashed=1;labelBackgroundColor=none;rounded=0;exitX=1.003;exitY=0.399;exitDx=0;exitDy=0;exitPerimeter=0;entryX=0;entryY=0.5;entryDx=0;entryDy=0;fontFamily=Helvetica;" edge="1" parent="1" source="U1jcqS2KWoJxYVEzJyyE-38" target="U1jcqS2KWoJxYVEzJyyE-41">
          <mxGeometry width="160" relative="1" as="geometry">
            <mxPoint x="290" y="300" as="sourcePoint" />
            <mxPoint x="450" y="300" as="targetPoint" />
          </mxGeometry>
        </mxCell>
        <mxCell id="U1jcqS2KWoJxYVEzJyyE-43" value="&lt;font&gt;Modify Purchase order&lt;/font&gt;" style="ellipse;whiteSpace=wrap;html=1;fontFamily=Helvetica;fillColor=#ffcc99;strokeColor=#36393d;" vertex="1" parent="1">
          <mxGeometry x="650" y="610" width="140" height="70" as="geometry" />
        </mxCell>
        <mxCell id="U1jcqS2KWoJxYVEzJyyE-44" style="rounded=0;orthogonalLoop=1;jettySize=auto;html=1;exitX=0.5;exitY=0.5;exitDx=0;exitDy=0;exitPerimeter=0;entryX=0;entryY=0.5;entryDx=0;entryDy=0;fontFamily=Helvetica;endArrow=none;startFill=0;" edge="1" parent="1" source="U1jcqS2KWoJxYVEzJyyE-45" target="U1jcqS2KWoJxYVEzJyyE-46">
          <mxGeometry relative="1" as="geometry" />
        </mxCell>
        <mxCell id="U1jcqS2KWoJxYVEzJyyE-45" value="&lt;span id=&quot;docs-internal-guid-8d97b878-7fff-36c7-eeb0-1722fb72b11d&quot;&gt;&lt;span style=&quot;font-size: 10pt; background-color: transparent; font-variant-numeric: normal; font-variant-east-asian: normal; font-variant-alternates: normal; font-variant-position: normal; font-variant-emoji: normal; vertical-align: baseline; white-space: pre-wrap;&quot;&gt;Sales staff&lt;/span&gt;&lt;/span&gt;" style="shape=umlActor;verticalLabelPosition=bottom;verticalAlign=top;html=1;outlineConnect=0;fontFamily=Helvetica;" vertex="1" parent="1">
          <mxGeometry x="60" y="270" width="30" height="60" as="geometry" />
        </mxCell>
        <mxCell id="U1jcqS2KWoJxYVEzJyyE-46" value="&lt;font&gt;Evaluate product quality&amp;nbsp;&lt;/font&gt;" style="ellipse;whiteSpace=wrap;html=1;fontFamily=Helvetica;fillColor=#ffcccc;strokeColor=#36393d;" vertex="1" parent="1">
          <mxGeometry x="260.5" y="240" width="140" height="70" as="geometry" />
        </mxCell>
        <mxCell id="U1jcqS2KWoJxYVEzJyyE-47" value="Review Sales Reports" style="ellipse;whiteSpace=wrap;html=1;fontFamily=Helvetica;fillColor=#ffcccc;strokeColor=#36393d;" vertex="1" parent="1">
          <mxGeometry x="530.5" y="210" width="140" height="70" as="geometry" />
        </mxCell>
        <mxCell id="U1jcqS2KWoJxYVEzJyyE-48" value="&amp;lt;&amp;lt;include&amp;gt;&amp;gt;" style="edgeStyle=none;html=1;endArrow=open;verticalAlign=bottom;dashed=1;labelBackgroundColor=none;rounded=0;exitX=1;exitY=0.5;exitDx=0;exitDy=0;entryX=0;entryY=0.5;entryDx=0;entryDy=0;fontFamily=Helvetica;" edge="1" parent="1" source="U1jcqS2KWoJxYVEzJyyE-46" target="U1jcqS2KWoJxYVEzJyyE-47">
          <mxGeometry width="160" relative="1" as="geometry">
            <mxPoint x="390" y="208" as="sourcePoint" />
            <mxPoint x="540" y="210" as="targetPoint" />
          </mxGeometry>
        </mxCell>
        <mxCell id="U1jcqS2KWoJxYVEzJyyE-49" value="" style="rounded=0;orthogonalLoop=1;jettySize=auto;html=1;exitX=0.5;exitY=0.5;exitDx=0;exitDy=0;exitPerimeter=0;entryX=0;entryY=0.5;entryDx=0;entryDy=0;fontFamily=Helvetica;endArrow=none;startFill=0;" edge="1" parent="1" source="U1jcqS2KWoJxYVEzJyyE-39" target="U1jcqS2KWoJxYVEzJyyE-50">
          <mxGeometry relative="1" as="geometry">
            <mxPoint x="475" y="432" as="targetPoint" />
            <mxPoint x="75" y="427" as="sourcePoint" />
          </mxGeometry>
        </mxCell>
        <mxCell id="U1jcqS2KWoJxYVEzJyyE-50" value="Purchase Product" style="ellipse;whiteSpace=wrap;html=1;fontFamily=Helvetica;fillColor=#ffcc99;strokeColor=#36393d;" vertex="1" parent="1">
          <mxGeometry x="180.5" y="460" width="140" height="70" as="geometry" />
        </mxCell>
        <mxCell id="U1jcqS2KWoJxYVEzJyyE-51" value="&amp;lt;&amp;lt;Order Entry System&amp;gt;&amp;gt;" style="shape=umlActor;verticalLabelPosition=bottom;verticalAlign=top;html=1;outlineConnect=0;" vertex="1" parent="1">
          <mxGeometry x="1340" y="110" width="30" height="60" as="geometry" />
        </mxCell>
        <mxCell id="U1jcqS2KWoJxYVEzJyyE-52" value="Confirm Inventory levels" style="ellipse;whiteSpace=wrap;html=1;fontFamily=Helvetica;fillColor=#ffcc99;strokeColor=#36393d;" vertex="1" parent="1">
          <mxGeometry x="405.5" y="420" width="150" height="80" as="geometry" />
        </mxCell>
        <mxCell id="U1jcqS2KWoJxYVEzJyyE-53" value="&amp;lt;&amp;lt;include&amp;gt;&amp;gt;" style="edgeStyle=none;html=1;endArrow=open;verticalAlign=bottom;dashed=1;labelBackgroundColor=none;rounded=0;exitX=1;exitY=0.5;exitDx=0;exitDy=0;entryX=0;entryY=0.5;entryDx=0;entryDy=0;fontFamily=Helvetica;" edge="1" parent="1" source="U1jcqS2KWoJxYVEzJyyE-50" target="U1jcqS2KWoJxYVEzJyyE-52">
          <mxGeometry width="160" relative="1" as="geometry">
            <mxPoint x="295.5" y="468.46000000000004" as="sourcePoint" />
            <mxPoint x="405.5" y="468.46000000000004" as="targetPoint" />
          </mxGeometry>
        </mxCell>
        <mxCell id="U1jcqS2KWoJxYVEzJyyE-54" value="&amp;lt;&amp;lt;include&amp;gt;&amp;gt;" style="edgeStyle=none;html=1;endArrow=open;verticalAlign=bottom;dashed=1;labelBackgroundColor=none;rounded=0;fontFamily=Helvetica;" edge="1" parent="1">
          <mxGeometry width="160" relative="1" as="geometry">
            <mxPoint x="300" y="520" as="sourcePoint" />
            <mxPoint x="460" y="570" as="targetPoint" />
            <Array as="points" />
          </mxGeometry>
        </mxCell>
        <mxCell id="U1jcqS2KWoJxYVEzJyyE-55" value="Consult with Route drivers" style="ellipse;whiteSpace=wrap;html=1;fontFamily=Helvetica;fillColor=#ffcccc;strokeColor=#36393d;" vertex="1" parent="1">
          <mxGeometry x="490" y="327" width="140" height="70" as="geometry" />
        </mxCell>
        <mxCell id="U1jcqS2KWoJxYVEzJyyE-56" value="&amp;lt;&amp;lt;include&amp;gt;&amp;gt;" style="edgeStyle=none;html=1;endArrow=open;verticalAlign=bottom;dashed=1;labelBackgroundColor=none;rounded=0;entryX=0;entryY=0;entryDx=0;entryDy=0;fontFamily=Helvetica;exitX=1;exitY=0.5;exitDx=0;exitDy=0;" edge="1" parent="1" source="U1jcqS2KWoJxYVEzJyyE-46" target="U1jcqS2KWoJxYVEzJyyE-55">
          <mxGeometry width="160" relative="1" as="geometry">
            <mxPoint x="400" y="320" as="sourcePoint" />
            <mxPoint x="536" y="285" as="targetPoint" />
          </mxGeometry>
        </mxCell>
        <mxCell id="U1jcqS2KWoJxYVEzJyyE-57" value="Check returned Merchandise" style="ellipse;whiteSpace=wrap;html=1;fontFamily=Helvetica;fillColor=#ffcccc;strokeColor=#36393d;" vertex="1" parent="1">
          <mxGeometry x="690" y="260" width="137" height="90" as="geometry" />
        </mxCell>
        <mxCell id="U1jcqS2KWoJxYVEzJyyE-58" value="&amp;lt;&amp;lt;include&amp;gt;&amp;gt;" style="edgeStyle=none;html=1;endArrow=open;verticalAlign=bottom;dashed=1;labelBackgroundColor=none;rounded=0;exitX=1;exitY=0.5;exitDx=0;exitDy=0;entryX=0;entryY=0.5;entryDx=0;entryDy=0;fontFamily=Helvetica;" edge="1" parent="1" source="U1jcqS2KWoJxYVEzJyyE-46" target="U1jcqS2KWoJxYVEzJyyE-57">
          <mxGeometry width="160" relative="1" as="geometry">
            <mxPoint x="409" y="325" as="sourcePoint" />
            <mxPoint x="536" y="285" as="targetPoint" />
          </mxGeometry>
        </mxCell>
        <mxCell id="U1jcqS2KWoJxYVEzJyyE-59" value="" style="endArrow=none;html=1;rounded=0;fontSize=12;startSize=8;endSize=8;curved=1;entryX=0;entryY=0.3333333333333333;entryDx=0;entryDy=0;entryPerimeter=0;" edge="1" parent="1" target="U1jcqS2KWoJxYVEzJyyE-51">
          <mxGeometry width="50" height="50" relative="1" as="geometry">
            <mxPoint x="830" y="120" as="sourcePoint" />
            <mxPoint x="810" y="610" as="targetPoint" />
          </mxGeometry>
        </mxCell>
        <mxCell id="U1jcqS2KWoJxYVEzJyyE-60" value="identify products for inventory" style="ellipse;whiteSpace=wrap;html=1;fontFamily=Helvetica;fillColor=#ffcccc;strokeColor=#36393d;" vertex="1" parent="1">
          <mxGeometry x="300" y="350" width="140" height="70" as="geometry" />
        </mxCell>
        <mxCell id="U1jcqS2KWoJxYVEzJyyE-61" value="&amp;lt;&amp;lt;include&amp;gt;&amp;gt;" style="edgeStyle=none;html=1;endArrow=open;verticalAlign=bottom;dashed=1;labelBackgroundColor=none;rounded=0;entryX=1;entryY=1;entryDx=0;entryDy=0;fontFamily=Helvetica;exitX=1;exitY=0;exitDx=0;exitDy=0;" edge="1" parent="1" source="U1jcqS2KWoJxYVEzJyyE-60" target="U1jcqS2KWoJxYVEzJyyE-46">
          <mxGeometry width="160" relative="1" as="geometry">
            <mxPoint x="411" y="285" as="sourcePoint" />
            <mxPoint x="521" y="347" as="targetPoint" />
          </mxGeometry>
        </mxCell>
        <mxCell id="U1jcqS2KWoJxYVEzJyyE-62" style="rounded=0;orthogonalLoop=1;jettySize=auto;html=1;exitX=0.5;exitY=0.5;exitDx=0;exitDy=0;exitPerimeter=0;entryX=0.042;entryY=0.293;entryDx=0;entryDy=0;fontFamily=Helvetica;endArrow=none;startFill=0;entryPerimeter=0;" edge="1" parent="1" target="U1jcqS2KWoJxYVEzJyyE-60">
          <mxGeometry relative="1" as="geometry">
            <mxPoint x="85" y="310" as="sourcePoint" />
            <mxPoint x="271" y="285" as="targetPoint" />
          </mxGeometry>
        </mxCell>
        <mxCell id="U1jcqS2KWoJxYVEzJyyE-63" value="&amp;lt;&amp;lt;include&amp;gt;&amp;gt;" style="edgeStyle=none;html=1;endArrow=open;verticalAlign=bottom;dashed=1;labelBackgroundColor=none;rounded=0;entryX=0.324;entryY=0.966;entryDx=0;entryDy=0;fontFamily=Helvetica;entryPerimeter=0;" edge="1" parent="1" target="U1jcqS2KWoJxYVEzJyyE-60">
          <mxGeometry width="160" relative="1" as="geometry">
            <mxPoint x="290" y="466" as="sourcePoint" />
            <mxPoint x="410" y="510" as="targetPoint" />
          </mxGeometry>
        </mxCell>
        <mxCell id="U1jcqS2KWoJxYVEzJyyE-64" style="edgeStyle=none;curved=1;rounded=0;orthogonalLoop=1;jettySize=auto;html=1;fontSize=12;startSize=8;endSize=8;entryX=0;entryY=0.3333333333333333;entryDx=0;entryDy=0;entryPerimeter=0;" edge="1" parent="1" source="U1jcqS2KWoJxYVEzJyyE-65" target="U1jcqS2KWoJxYVEzJyyE-68">
          <mxGeometry relative="1" as="geometry">
            <mxPoint x="1226" y="540" as="targetPoint" />
          </mxGeometry>
        </mxCell>
        <mxCell id="U1jcqS2KWoJxYVEzJyyE-65" value="Send Purchase Order" style="ellipse;whiteSpace=wrap;html=1;fontFamily=Helvetica;fillColor=#ffcc99;strokeColor=#36393d;" vertex="1" parent="1">
          <mxGeometry x="610" y="500" width="140" height="70" as="geometry" />
        </mxCell>
        <mxCell id="U1jcqS2KWoJxYVEzJyyE-66" value="&amp;lt;&amp;lt;extend&amp;gt;&amp;gt;" style="edgeStyle=none;html=1;endArrow=open;verticalAlign=bottom;dashed=1;labelBackgroundColor=none;rounded=0;fontFamily=Helvetica;exitX=0;exitY=0.5;exitDx=0;exitDy=0;entryX=1;entryY=1;entryDx=0;entryDy=0;" edge="1" parent="1" source="U1jcqS2KWoJxYVEzJyyE-43" target="U1jcqS2KWoJxYVEzJyyE-67">
          <mxGeometry width="160" relative="1" as="geometry">
            <mxPoint x="310" y="530" as="sourcePoint" />
            <mxPoint x="660" y="640" as="targetPoint" />
            <Array as="points" />
          </mxGeometry>
        </mxCell>
        <mxCell id="U1jcqS2KWoJxYVEzJyyE-67" value="&lt;font&gt;Generate Purchase order&lt;/font&gt;" style="ellipse;whiteSpace=wrap;html=1;fontFamily=Helvetica;fillColor=#ffcc99;strokeColor=#36393d;" vertex="1" parent="1">
          <mxGeometry x="470" y="550" width="140" height="70" as="geometry" />
        </mxCell>
        <mxCell id="U1jcqS2KWoJxYVEzJyyE-68" value="&amp;lt;&amp;lt;Supplier&amp;gt;&amp;gt;" style="shape=umlActor;verticalLabelPosition=bottom;verticalAlign=top;html=1;outlineConnect=0;" vertex="1" parent="1">
          <mxGeometry x="1450" y="505" width="30" height="60" as="geometry" />
        </mxCell>
        <mxCell id="U1jcqS2KWoJxYVEzJyyE-69" value="&amp;lt;&amp;lt;include&amp;gt;&amp;gt;" style="edgeStyle=none;html=1;endArrow=open;verticalAlign=bottom;dashed=1;labelBackgroundColor=none;rounded=0;fontFamily=Helvetica;exitX=1;exitY=0.5;exitDx=0;exitDy=0;entryX=0;entryY=0.5;entryDx=0;entryDy=0;" edge="1" parent="1" source="U1jcqS2KWoJxYVEzJyyE-50" target="U1jcqS2KWoJxYVEzJyyE-65">
          <mxGeometry width="160" relative="1" as="geometry">
            <mxPoint x="310" y="530" as="sourcePoint" />
            <mxPoint x="470" y="580" as="targetPoint" />
            <Array as="points" />
          </mxGeometry>
        </mxCell>
      </root>
    </mxGraphModel>
  </diagram>
</mxfile>
